<mxfile host="app.diagrams.net" modified="2021-08-12T07:33:13.260Z" agent="5.0 (X11; Linux x86_64) AppleWebKit/537.36 (KHTML, like Gecko) Chrome/92.0.4515.131 Safari/537.36" etag="Ud8FnvtHfNCEA7BZ1Zf1" version="14.9.6" type="github">
  <diagram id="fvCgsu2ZJ-gSC0RxeoUe" name="Page-1">
    <mxGraphModel dx="1626" dy="2025" grid="0" gridSize="10" guides="1" tooltips="1" connect="1" arrows="1" fold="1" page="1" pageScale="1" pageWidth="827" pageHeight="1169" math="0" shadow="0">
      <root>
        <mxCell id="0" />
        <mxCell id="1" parent="0" />
        <mxCell id="q15BCNpqaFZ_fGrZMNJ0-10" value="" style="edgeStyle=orthogonalEdgeStyle;rounded=0;orthogonalLoop=1;jettySize=auto;html=1;" parent="1" source="q15BCNpqaFZ_fGrZMNJ0-5" target="q15BCNpqaFZ_fGrZMNJ0-9" edge="1">
          <mxGeometry relative="1" as="geometry" />
        </mxCell>
        <mxCell id="q15BCNpqaFZ_fGrZMNJ0-5" value="&lt;font style=&quot;font-size: 18px&quot;&gt;是否为移动存储介质&lt;/font&gt;" style="rhombus;whiteSpace=wrap;html=1;" parent="1" vertex="1">
          <mxGeometry x="240" y="-1090" width="130" height="100" as="geometry" />
        </mxCell>
        <mxCell id="q15BCNpqaFZ_fGrZMNJ0-14" value="" style="edgeStyle=orthogonalEdgeStyle;rounded=0;orthogonalLoop=1;jettySize=auto;html=1;" parent="1" source="q15BCNpqaFZ_fGrZMNJ0-9" target="q15BCNpqaFZ_fGrZMNJ0-13" edge="1">
          <mxGeometry relative="1" as="geometry" />
        </mxCell>
        <mxCell id="q15BCNpqaFZ_fGrZMNJ0-9" value="&lt;font style=&quot;font-size: 18px&quot;&gt;获取Device参数，组成key键，提供后续查找&lt;/font&gt;" style="rounded=1;whiteSpace=wrap;html=1;" parent="1" vertex="1">
          <mxGeometry x="230" y="-940" width="150" height="70" as="geometry" />
        </mxCell>
        <mxCell id="AhLofSwgp-453ADISSDI-1" value="" style="edgeStyle=orthogonalEdgeStyle;rounded=0;orthogonalLoop=1;jettySize=auto;html=1;" parent="1" source="q15BCNpqaFZ_fGrZMNJ0-13" target="rwF0eWlmXR6ddbn91D17-29" edge="1">
          <mxGeometry relative="1" as="geometry" />
        </mxCell>
        <mxCell id="AhLofSwgp-453ADISSDI-5" value="" style="edgeStyle=orthogonalEdgeStyle;rounded=0;orthogonalLoop=1;jettySize=auto;html=1;" parent="1" source="q15BCNpqaFZ_fGrZMNJ0-13" target="q15BCNpqaFZ_fGrZMNJ0-15" edge="1">
          <mxGeometry relative="1" as="geometry" />
        </mxCell>
        <mxCell id="q15BCNpqaFZ_fGrZMNJ0-13" value="&lt;font style=&quot;font-size: 18px&quot;&gt;查找hash表，获取具体型号&lt;/font&gt;" style="rhombus;whiteSpace=wrap;html=1;" parent="1" vertex="1">
          <mxGeometry x="232.5" y="-827.5" width="145" height="127.5" as="geometry" />
        </mxCell>
        <mxCell id="rwF0eWlmXR6ddbn91D17-22" value="" style="edgeStyle=orthogonalEdgeStyle;curved=0;rounded=1;sketch=0;orthogonalLoop=1;jettySize=auto;html=1;entryX=0.5;entryY=0;entryDx=0;entryDy=0;" parent="1" source="q15BCNpqaFZ_fGrZMNJ0-15" target="q15BCNpqaFZ_fGrZMNJ0-17" edge="1">
          <mxGeometry relative="1" as="geometry">
            <mxPoint x="290" y="-480" as="targetPoint" />
          </mxGeometry>
        </mxCell>
        <mxCell id="q15BCNpqaFZ_fGrZMNJ0-15" value="&lt;font style=&quot;font-size: 18px&quot;&gt;赋予对应权限&lt;/font&gt;" style="rounded=1;whiteSpace=wrap;html=1;" parent="1" vertex="1">
          <mxGeometry x="225" y="-650" width="160" height="70" as="geometry" />
        </mxCell>
        <mxCell id="q15BCNpqaFZ_fGrZMNJ0-17" value="&lt;span style=&quot;font-size: 18px&quot;&gt;挂载&lt;/span&gt;" style="whiteSpace=wrap;html=1;rounded=1;" parent="1" vertex="1">
          <mxGeometry x="230" y="-509" width="149" height="59" as="geometry" />
        </mxCell>
        <mxCell id="q15BCNpqaFZ_fGrZMNJ0-21" value="&lt;font style=&quot;font-size: 18px&quot;&gt;否&lt;/font&gt;" style="text;html=1;align=center;verticalAlign=middle;whiteSpace=wrap;rounded=0;" parent="1" vertex="1">
          <mxGeometry x="370" y="-1080" width="40" height="20" as="geometry" />
        </mxCell>
        <mxCell id="q15BCNpqaFZ_fGrZMNJ0-22" value="&lt;font style=&quot;font-size: 18px&quot;&gt;是&lt;/font&gt;" style="text;html=1;align=center;verticalAlign=middle;whiteSpace=wrap;rounded=0;" parent="1" vertex="1">
          <mxGeometry x="320" y="-990" width="40" height="20" as="geometry" />
        </mxCell>
        <mxCell id="q15BCNpqaFZ_fGrZMNJ0-25" value="&lt;font style=&quot;font-size: 18px&quot;&gt;匹配&lt;/font&gt;" style="text;html=1;align=center;verticalAlign=middle;whiteSpace=wrap;rounded=0;" parent="1" vertex="1">
          <mxGeometry x="320" y="-700" width="40" height="20" as="geometry" />
        </mxCell>
        <mxCell id="q15BCNpqaFZ_fGrZMNJ0-28" value="&lt;font style=&quot;font-size: 18px&quot;&gt;不匹配&lt;/font&gt;" style="text;html=1;align=center;verticalAlign=middle;whiteSpace=wrap;rounded=0;" parent="1" vertex="1">
          <mxGeometry x="352.5" y="-820" width="70" height="20" as="geometry" />
        </mxCell>
        <mxCell id="rwF0eWlmXR6ddbn91D17-19" value="" style="shape=curlyBracket;whiteSpace=wrap;html=1;rounded=1;sketch=0;" parent="1" vertex="1">
          <mxGeometry x="199" y="-1038.75" width="20" height="550" as="geometry" />
        </mxCell>
        <mxCell id="AhLofSwgp-453ADISSDI-7" value="" style="edgeStyle=orthogonalEdgeStyle;rounded=0;orthogonalLoop=1;jettySize=auto;html=1;" parent="1" source="rwF0eWlmXR6ddbn91D17-29" target="AhLofSwgp-453ADISSDI-2" edge="1">
          <mxGeometry relative="1" as="geometry" />
        </mxCell>
        <mxCell id="rwF0eWlmXR6ddbn91D17-29" value="&lt;font style=&quot;font-size: 18px&quot;&gt;&lt;span&gt;查找hash表，获取&lt;/span&gt;&lt;span&gt;全局行为&lt;/span&gt;&lt;/font&gt;" style="rhombus;whiteSpace=wrap;html=1;rounded=0;sketch=0;" parent="1" vertex="1">
          <mxGeometry x="422.5" y="-828.75" width="150" height="130" as="geometry" />
        </mxCell>
        <mxCell id="rwF0eWlmXR6ddbn91D17-55" value="&lt;font style=&quot;font-size: 18px&quot;&gt;挂载阶段&lt;/font&gt;" style="ellipse;whiteSpace=wrap;html=1;rounded=0;sketch=0;" parent="1" vertex="1">
          <mxGeometry x="101" y="-858.75" width="80" height="190" as="geometry" />
        </mxCell>
        <mxCell id="rwF0eWlmXR6ddbn91D17-62" value="" style="endArrow=classic;html=1;exitX=1;exitY=0.5;exitDx=0;exitDy=0;entryX=0.5;entryY=0;entryDx=0;entryDy=0;" parent="1" source="q15BCNpqaFZ_fGrZMNJ0-5" edge="1">
          <mxGeometry width="50" height="50" relative="1" as="geometry">
            <mxPoint x="460" y="-830" as="sourcePoint" />
            <mxPoint x="689.9999999999995" y="-650" as="targetPoint" />
            <Array as="points">
              <mxPoint x="690" y="-1040" />
            </Array>
          </mxGeometry>
        </mxCell>
        <mxCell id="rwF0eWlmXR6ddbn91D17-63" value="" style="endArrow=classic;html=1;" parent="1" edge="1">
          <mxGeometry width="50" height="50" relative="1" as="geometry">
            <mxPoint x="572.5" y="-764.34" as="sourcePoint" />
            <mxPoint x="687" y="-764" as="targetPoint" />
          </mxGeometry>
        </mxCell>
        <mxCell id="rwF0eWlmXR6ddbn91D17-64" value="" style="endArrow=classic;html=1;exitX=0.5;exitY=1;exitDx=0;exitDy=0;entryX=1;entryY=0.5;entryDx=0;entryDy=0;" parent="1" target="q15BCNpqaFZ_fGrZMNJ0-17" edge="1">
          <mxGeometry width="50" height="50" relative="1" as="geometry">
            <mxPoint x="689.9999999999995" y="-590" as="sourcePoint" />
            <mxPoint x="510" y="-510" as="targetPoint" />
            <Array as="points">
              <mxPoint x="690" y="-480" />
            </Array>
          </mxGeometry>
        </mxCell>
        <mxCell id="AhLofSwgp-453ADISSDI-8" value="" style="edgeStyle=orthogonalEdgeStyle;rounded=0;orthogonalLoop=1;jettySize=auto;html=1;" parent="1" source="AhLofSwgp-453ADISSDI-2" edge="1">
          <mxGeometry relative="1" as="geometry">
            <mxPoint x="497.5" y="-480" as="targetPoint" />
          </mxGeometry>
        </mxCell>
        <mxCell id="AhLofSwgp-453ADISSDI-2" value="&lt;font style=&quot;font-size: 18px&quot;&gt;赋予全局权限&lt;/font&gt;" style="rounded=1;whiteSpace=wrap;html=1;" parent="1" vertex="1">
          <mxGeometry x="417.5" y="-650" width="160" height="70" as="geometry" />
        </mxCell>
        <mxCell id="AhLofSwgp-453ADISSDI-3" value="&lt;font style=&quot;font-size: 18px&quot;&gt;赋予默认读写权限&lt;/font&gt;" style="rounded=1;whiteSpace=wrap;html=1;" parent="1" vertex="1">
          <mxGeometry x="610" y="-650" width="160" height="70" as="geometry" />
        </mxCell>
        <mxCell id="AhLofSwgp-453ADISSDI-9" value="&lt;span style=&quot;font-size: 18px&quot;&gt;无全局设置&lt;/span&gt;" style="text;html=1;align=center;verticalAlign=middle;whiteSpace=wrap;rounded=0;" parent="1" vertex="1">
          <mxGeometry x="572.5" y="-800" width="110" height="20" as="geometry" />
        </mxCell>
      </root>
    </mxGraphModel>
  </diagram>
</mxfile>
